HIERARCHY
ROOT Hips
{
  OFFSET 13.6774 106.653 -34.4427
  CHANNELS 6 Xposition Yposition Zposition Zrotation Xrotation Yrotation
  JOINT ToSpine
  {
    OFFSET -2.69724 7.43032 -0.144315
    CHANNELS 3 Zrotation Xrotation Yrotation
    JOINT Spine
    {
      OFFSET -0.0310711 10.7595 1.96963
      CHANNELS 3 Zrotation Xrotation Yrotation
      JOINT Spine1
      {
        OFFSET 19.9056 3.91189 0.764692
        CHANNELS 3 Zrotation Xrotation Yrotation
        JOINT Neck
        {
          OFFSET 25.9749 7.03908 -0.130764
          CHANNELS 3 Zrotation Xrotation Yrotation
          JOINT Head
          {
            OFFSET 9.52751 0.295786 -0.907742
            CHANNELS 3 Zrotation Xrotation Yrotation
            End Site
            {
              OFFSET 16.4037 0.713936 2.7358
            }
          }
        }
        JOINT LeftShoulder
        {
          OFFSET 17.7449 4.33886 11.7777
          CHANNELS 3 Zrotation Xrotation Yrotation
          JOINT LeftArm
          {
            OFFSET 0.911315 1.27913 9.80584
            CHANNELS 3 Zrotation Xrotation Yrotation
            JOINT LeftForeArm
            {
              OFFSET 28.6126 1.18197 -3.53199
              CHANNELS 3 Zrotation Xrotation Yrotation
              JOINT LeftHand
              {
                OFFSET 27.5088 0.0218783 0.327423
                CHANNELS 3 Zrotation Xrotation Yrotation
                End Site
                {
                  OFFSET 18.6038 -0.000155887 0.382096
                }
              }
            }
          }
        }
        JOINT RightShoulder
        {
          OFFSET 17.1009 2.89543 -12.2328
          CHANNELS 3 Zrotation Xrotation Yrotation
          JOINT RightArm
          {
            OFFSET 1.4228 0.178766 -10.211
            CHANNELS 3 Zrotation Xrotation Yrotation
            JOINT RightForeArm
            {
              OFFSET 28.733 1.87905 2.64907
              CHANNELS 3 Zrotation Xrotation Yrotation
              JOINT RightHand
              {
                OFFSET 27.4588 0.290562 -0.101845
                CHANNELS 3 Zrotation Xrotation Yrotation
                End Site
                {
                  OFFSET 17.8396 -0.255518 -0.000602873
                }
              }
            }
          }
        }
      }
    }
  }
  JOINT LeftUpLeg
  {
    OFFSET -5.61296 -2.22332 -10.2353
    CHANNELS 3 Zrotation Xrotation Yrotation
    JOINT LeftLeg
    {
      OFFSET 2.56703 -44.7417 -7.93097
      CHANNELS 3 Zrotation Xrotation Yrotation
      JOINT LeftFoot
      {
        OFFSET 3.16933 -46.5642 -3.96578
        CHANNELS 3 Zrotation Xrotation Yrotation
        JOINT LeftToeBase
        {
          OFFSET 0.346054 -6.02161 12.8035
          CHANNELS 3 Zrotation Xrotation Yrotation
          End Site
          {
            OFFSET 0.134235 -1.35082 5.13018
          }
        }
      }
    }
  }
  JOINT RightUpLeg
  {
    OFFSET -5.7928 -1.72406 10.6446
    CHANNELS 3 Zrotation Xrotation Yrotation
    JOINT RightLeg
    {
      OFFSET -2.57161 -44.7178 -7.85259
      CHANNELS 3 Zrotation Xrotation Yrotation
      JOINT RightFoot
      {
        OFFSET -3.10148 -46.5936 -4.03391
        CHANNELS 3 Zrotation Xrotation Yrotation
        JOINT RightToeBase
        {
          OFFSET -0.0828122 -6.13587 12.8035
          CHANNELS 3 Zrotation Xrotation Yrotation
          End Site
          {
            OFFSET -0.131328 -1.35082 5.13018
          }
        }
      }
    }
  }
}
MOTION
Frames: 12
Frame Time: 0.03333333333333333
0.0000 93.1000 0.0000 11.6532 -46.4628 -79.5163 -70.8741 -0.3630 87.7463 131.6526 76.1682 -45.6322 -9.7458 31.0676 -1.9351 -168.0193 32.6038 173.7813 -157.6673 71.9048 -168.6214 -0.5773 -12.4682 -23.7523 -64.9310 62.2132 -58.0098 15.0420 4.0055 -76.4657 -0.4177 1.0032 0.7693 -1.6499 7.9213 29.2109 -102.1565 -30.7669 91.6438 18.5467 1.4530 95.6206 0.4892 -1.0734 0.9257 -1.9989 3.7116 104.3389 -9.2579 62.0218 -17.9631 -7.5469 -4.4549 -1.2953 13.8626 -27.1425 22.7530 -61.7227 4.2119 85.4172 0.5682 36.1231 6.9862 -1.1466 20.3472 -1.5203 0.3282 -5.0664 -1.3324 
0.0000 93.1000 0.0000 13.3043 -47.9462 -77.3596 -70.7654 -0.5066 87.7397 127.8472 75.3535 -43.2005 -7.5852 29.4265 -1.3552 -164.8570 31.9718 172.7087 -160.7132 71.6879 -163.7748 -0.5929 -13.1169 -27.0735 -69.3785 59.6538 -59.1138 14.9056 2.5829 -78.5900 -0.5805 0.6145 0.4209 -2.4591 7.7758 37.0483 -93.6224 -29.3795 87.4811 19.1865 0.0156 90.4680 -0.1644 -0.6921 0.1502 -7.5877 4.0239 105.3006 -9.6329 62.8995 -17.2580 -7.5716 -4.9038 -0.6349 13.0841 -25.9965 19.5035 -57.4233 5.3759 86.1835 2.5586 54.5378 -0.9794 -3.0783 15.8043 -1.3974 0.7912 -3.7235 -8.1619 
0.0000 93.1000 0.0000 12.5118 -49.4879 -77.5108 -70.8437 -0.1761 88.0685 122.3153 74.3903 -39.5661 -6.0436 27.6126 -1.1241 -161.3053 30.1211 172.3496 -161.6144 70.0939 -158.8806 0.0846 -13.2371 -30.1680 -77.2951 55.9374 -58.1958 17.2029 0.6619 -83.9638 0.0868 -0.5040 0.2184 -3.5287 7.5621 43.0340 -83.0479 -30.0851 86.4496 18.1625 -2.5721 80.5787 -1.1489 0.5164 -0.8325 -15.8551 2.2672 103.0299 -9.8203 65.3815 -15.0962 -3.8315 -10.9677 -0.1615 9.1175 -19.3424 13.6874 -48.7612 4.8640 85.1259 9.0503 75.9715 -14.2485 -6.4517 13.9262 -1.3018 -0.0290 -4.2125 -6.9119 
0.0000 93.1000 0.0000 13.5514 -52.0620 -79.5409 -70.8668 0.9353 88.1850 116.3251 73.0311 -36.9904 -5.1831 25.3941 -0.2223 -159.6851 27.4529 171.9964 -161.3590 67.3971 -155.8725 0.7839 -12.3805 -33.2394 -83.9137 52.0326 -61.8957 20.0963 -0.3229 -88.5435 0.2585 -0.6155 -0.4401 -2.7634 7.3595 45.6074 -73.8293 -32.6766 85.7944 15.5132 -5.7830 69.6804 -0.0785 0.6579 -0.1074 -23.2945 -0.5537 101.8305 -10.2058 64.8380 -14.1151 -1.0534 -17.9103 -1.9095 8.3949 -18.1676 14.6415 -33.4865 0.7943 84.8981 150.7165 79.2623 -161.5859 -12.7389 10.4902 1.1332 1.0047 -7.9265 1.5701 
0.0000 93.1000 0.0000 13.1167 -50.6675 -81.5168 -71.1208 1.0009 87.9041 111.9129 71.2803 -34.0034 -3.5854 23.0831 0.2170 -162.9340 25.8567 172.2031 -163.9418 65.9262 -155.5881 0.6807 -13.0438 -32.9476 -84.5123 47.9354 -72.9073 21.9733 -1.4669 -93.8444 0.3480 -0.5601 -0.6727 -2.5586 7.2215 47.2033 -68.4651 -37.1548 79.6484 8.9324 -4.6912 63.8186 1.0121 0.6696 0.3763 -29.2593 -3.0305 100.1837 -8.9548 63.4138 -13.8513 -0.1005 -22.4708 -2.2535 9.4307 -21.1405 17.8605 -14.8103 -0.6665 85.7650 171.8649 68.0220 173.7902 -17.6609 7.8970 2.2227 1.8129 -17.3823 2.1170 
0.0000 93.1000 0.0000 13.2777 -50.0530 -79.4370 -71.2103 -0.0430 87.7112 112.0352 69.9208 -31.1772 -4.0098 20.3940 0.4292 -163.7550 24.0659 172.2958 -158.3446 63.5638 -158.0351 0.3467 -12.9819 -29.7923 -83.1308 48.0238 -83.9222 24.3621 -4.8922 -97.9051 -0.3329 -0.8188 0.3314 -3.6586 7.4664 48.7971 -66.9122 -39.6925 68.6612 3.6520 -2.8998 63.7111 -0.4652 0.9361 -0.0965 -37.5728 -3.2751 95.5900 -7.1033 58.2473 -14.6931 -0.6746 -22.6268 -1.0198 11.3469 -22.9732 16.7679 -0.6284 -1.5559 85.0004 167.3302 69.7267 177.2504 -15.2077 3.2241 0.6639 0.9655 -20.1713 4.2205 
0.0000 93.1000 0.0000 13.0072 -50.5393 -75.2689 -71.0418 0.4422 87.8407 113.1376 67.2030 -30.3488 -5.4513 18.0647 3.8845 -163.2082 22.0555 172.5941 -153.6717 62.1066 -163.3450 0.4714 -12.1912 -26.4319 -85.4012 49.5271 -84.4291 22.6050 -6.2112 -105.1458 0.2057 -0.0849 -0.2134 -2.6486 7.0279 48.0286 -62.2506 -42.3343 59.8572 2.1862 -2.0010 65.7393 0.2033 -0.1368 0.1851 -48.3065 0.3604 91.8873 -5.9669 50.0552 -14.5816 -2.9905 -17.8420 -2.0723 13.2308 -25.2556 12.9566 5.8332 -1.7069 82.1921 169.3249 80.3810 -179.1290 -14.7839 -0.0596 2.3378 1.8543 -22.5334 -6.5130 
0.0000 93.1000 0.0000 12.4243 -50.5026 -74.7638 -70.9802 0.4579 87.6186 113.0222 65.3108 -28.0966 -6.0278 15.1580 6.8178 -163.7272 19.5524 172.9760 -150.3041 58.8441 -170.4461 0.8417 -11.4472 -24.5283 -84.2564 48.8344 -83.6486 19.0666 -6.7797 -108.4219 0.0558 -0.3238 0.0615 -2.8701 7.0725 47.5202 -62.7497 -43.7845 52.9580 0.8635 -1.3761 67.2917 -0.5999 0.2948 0.1254 -57.9993 2.9003 89.5007 -4.4093 40.7470 -13.9454 -6.9926 -1.7074 0.3230 12.4983 -26.7600 5.2866 7.8373 -2.6894 79.7766 26.3845 78.9846 -32.3819 -8.8555 -2.5411 1.2255 0.0951 -22.4730 -14.1985 
0.0000 93.1000 0.0000 10.2927 -50.3230 -75.0669 -70.8931 -0.0319 87.4296 113.0461 64.2994 -25.6102 -5.1104 13.8734 7.0903 -164.0732 18.0889 173.9081 -147.9905 56.7443 -172.3068 0.2568 -11.1755 -23.9077 -82.4352 48.0619 -82.5278 15.7742 -5.8972 -106.8450 0.2922 0.3151 0.0775 -2.7665 6.8931 46.8641 -66.9038 -43.1286 48.9514 0.6332 -1.0812 68.8121 0.1184 -0.3040 0.4959 -63.5621 3.2588 88.0441 -4.1032 36.0800 -14.9765 -10.5033 10.4883 1.8693 5.8952 -15.3197 3.9586 4.1917 -2.1680 78.8395 3.3269 60.4529 4.4602 -5.6561 -0.6725 0.4416 0.7556 -28.4226 -33.3614 
0.0000 93.1000 0.0000 8.9820 -50.5121 -77.0946 -70.9680 0.0773 87.4146 109.0997 63.9623 -22.2557 -3.4855 13.7533 6.5229 -163.9249 17.8604 174.3781 -146.6684 56.7423 -175.4530 0.2603 -12.1465 -26.0550 -80.4039 48.0341 -80.4875 13.6113 -2.8814 -98.1823 0.2310 0.2407 0.1113 -2.7431 6.6787 48.1559 -69.7239 -40.0027 50.5465 0.3523 -0.9927 69.7985 0.6295 -0.2071 0.2920 -63.7841 0.7492 85.1612 -3.9711 44.9337 -9.8347 -10.0567 11.0007 2.0445 0.6566 -5.6812 5.5292 1.9006 -1.3551 78.8473 3.6670 53.7088 10.1534 -6.1349 1.1726 0.4781 0.7350 -32.3575 -36.2302 
0.0000 93.1000 0.0000 8.8176 -52.5675 -80.3021 -71.1745 -0.2211 87.4777 113.0690 63.8657 -26.0205 -2.0249 14.6630 5.5309 -162.8051 18.1526 175.0289 -145.3888 57.1918 -173.7716 0.0415 -13.8707 -28.0493 -78.3532 47.7354 -78.4419 9.4115 0.4332 -84.8302 0.1888 0.0447 0.0045 -3.0223 6.4038 49.9753 -73.7519 -35.8079 54.9615 1.5177 -0.9335 71.3094 0.3006 -0.0446 -0.0178 -58.8804 -1.6707 86.4828 -5.8134 62.1362 -2.0572 -10.4988 6.9312 2.0423 -0.7023 -2.3489 7.7426 -3.0267 -1.0960 79.7821 3.7573 57.1619 3.0578 -6.1836 -5.4653 0.3754 1.9728 -21.3736 -26.0383 
0.0000 93.1000 0.0000 5.5889 -54.8706 -83.1620 -71.2518 0.3167 87.7206 123.1165 64.2065 -35.4303 -2.4442 15.9272 3.7396 -163.4274 19.2482 177.6926 -150.1063 59.0041 -168.5042 0.5461 -13.9029 -29.8376 -74.9921 49.8460 -79.4307 8.0870 2.1343 -71.0485 -0.3760 -0.6112 -0.2372 -3.1427 6.3030 49.9683 -76.8068 -33.1224 63.0136 5.0769 -2.7035 73.9948 -0.5338 0.7752 0.3069 -49.9226 1.7259 88.7921 -25.0665 79.8214 15.8871 -8.9485 6.1081 1.9260 1.9800 -7.4885 9.6012 -11.7736 2.3071 79.2368 4.0194 59.6813 -2.5710 -5.5762 -18.3640 0.7622 1.4108 -1.9944 -15.1143 
